<?xml version="1.0" encoding="UTF-8" standalone="no"?>
<!DOCTYPE svg PUBLIC "-//W3C//DTD SVG 1.1//EN"
 "http://www.w3.org/Graphics/SVG/1.1/DTD/svg11.dtd">
<!-- Generated by graphviz version 12.0.0 (0)
 -->
<!-- Pages: 1 -->
<svg width="290pt" height="133pt"
 viewBox="0.00 0.00 289.50 132.50" xmlns="http://www.w3.org/2000/svg" xmlns:xlink="http://www.w3.org/1999/xlink">
<g id="graph0" class="graph" transform="scale(1 1) rotate(0) translate(4 128.5)">
<polygon fill="white" stroke="none" points="-4,4 -4,-128.5 285.5,-128.5 285.5,4 -4,4"/>
<!-- A -->
<g id="node1" class="node">
<title>A</title>
<ellipse fill="none" stroke="black" cx="136.62" cy="-106.5" rx="93.83" ry="18"/>
<text text-anchor="middle" x="136.62" y="-101.45" font-family="Times,serif" font-size="14.00">SPY Prior Day Return</text>
</g>
<!-- B -->
<g id="node2" class="node">
<title>B</title>
<polygon fill="none" stroke="black" points="123.25,-36 0,-36 0,0 123.25,0 123.25,-36"/>
<text text-anchor="middle" x="61.62" y="-12.95" font-family="Times,serif" font-size="14.00">SPY likely to go up</text>
</g>
<!-- A&#45;&gt;B -->
<g id="edge1" class="edge">
<title>A&#45;&gt;B</title>
<path fill="none" stroke="black" d="M121.81,-88.41C110.99,-75.93 96.14,-58.8 83.89,-44.68"/>
<polygon fill="black" stroke="black" points="86.86,-42.76 77.66,-37.49 81.57,-47.34 86.86,-42.76"/>
<text text-anchor="middle" x="127.25" y="-57.2" font-family="Times,serif" font-size="14.00">&gt; 0.5%</text>
</g>
<!-- C -->
<g id="node3" class="node">
<title>C</title>
<polygon fill="none" stroke="black" points="281.5,-36 141.75,-36 141.75,0 281.5,0 281.5,-36"/>
<text text-anchor="middle" x="211.62" y="-12.95" font-family="Times,serif" font-size="14.00">SPY likely to go down</text>
</g>
<!-- A&#45;&gt;C -->
<g id="edge2" class="edge">
<title>A&#45;&gt;C</title>
<path fill="none" stroke="black" d="M151.44,-88.41C162.26,-75.93 177.11,-58.8 189.36,-44.68"/>
<polygon fill="black" stroke="black" points="191.68,-47.34 195.59,-37.49 186.39,-42.76 191.68,-47.34"/>
<text text-anchor="middle" x="198.25" y="-57.2" font-family="Times,serif" font-size="14.00">&lt; &#45;1%</text>
</g>
</g>
</svg>
